<?xml version="1.0" encoding="UTF-8"?> <!-- Creator: CorelDRAW 2018 (64-Bit) --> <svg xmlns="http://www.w3.org/2000/svg" xmlns:xlink="http://www.w3.org/1999/xlink" xml:space="preserve" width="548px" height="220px" style="shape-rendering:geometricPrecision; text-rendering:geometricPrecision; image-rendering:optimizeQuality; fill-rule:evenodd; clip-rule:evenodd" viewBox="0 0 70.97 28.44"> <defs> <style type="text/css"> <![CDATA[ .fil0 {fill:black} .fil1 {fill:black;fill-rule:nonzero} .fil2 {fill:aqua;fill-rule:nonzero} ]]> </style> </defs> <g id="Слой_x0020_1"> <metadata id="CorelCorpID_0Corel-Layer"></metadata> <path class="fil0" d="M14.33 24.67l-0.03 0.02 -4.64 -3.47 0 7.22 -9.66 0 0 -21.14 9.72 0 0 5.78 -4.25 0 8.82 7.09 0.04 -0.03 0.04 0.03 8.82 -7.09 -4.25 0 0 -5.78 9.72 0 0 21.14 -9.66 0 0 -7.22 -4.65 3.47 -0.02 -0.02zm14.33 -20.84l0 -3.83 -28.66 0 0 3.83 28.66 0z"></path> <path class="fil1" d="M42.66 6.11l-5.71 0 0 1.31 2.2 0 0 5.65 1.32 0 0 -5.65 2.19 0 0 -1.31zm1.14 4.71l3.84 0c0.01,-0.12 0.02,-0.24 0.02,-0.36 0,-0.7 -0.21,-1.36 -0.64,-1.89 -0.48,-0.58 -1.23,-0.87 -2.01,-0.87 -0.77,0 -1.51,0.3 -2,0.87 -0.43,0.53 -0.62,1.16 -0.64,1.89 -0.02,0.69 0.2,1.34 0.64,1.89 0.49,0.58 1.23,0.83 2,0.87 0.78,0.04 1.53,-0.26 2.06,-0.84 0.11,-0.14 0.22,-0.28 0.31,-0.43l-1.31 -0.57c-0.04,0.05 -0.06,0.11 -0.1,0.16 -0.22,0.29 -0.57,0.45 -0.96,0.45 -0.37,0 -0.73,-0.16 -0.94,-0.45 -0.16,-0.2 -0.23,-0.45 -0.27,-0.72zm1.21 -1.89c0.39,0 0.74,0.15 0.96,0.45 0.09,0.12 0.16,0.27 0.21,0.42l-2.33 0c0.05,-0.15 0.12,-0.3 0.22,-0.42 0.21,-0.3 0.57,-0.45 0.94,-0.45zm8.35 0.09c-0.08,-0.16 -0.18,-0.3 -0.29,-0.45 -0.49,-0.57 -1.23,-0.87 -2.01,-0.87 -0.74,0 -1.49,0.27 -1.99,0.87 -0.44,0.53 -0.64,1.18 -0.64,1.89 0,0.71 0.2,1.35 0.64,1.88 0.48,0.58 1.23,0.89 1.99,0.87 0.77,0.02 1.52,-0.3 2.01,-0.87 0.11,-0.14 0.2,-0.28 0.29,-0.43l-1.24 -0.53c-0.03,0.06 -0.06,0.11 -0.1,0.16 -0.21,0.29 -0.57,0.44 -0.96,0.44 -0.37,0 -0.73,-0.15 -0.94,-0.44 -0.23,-0.29 -0.29,-0.68 -0.3,-1.08 0.01,-0.4 0.07,-0.79 0.3,-1.08 0.21,-0.29 0.57,-0.45 0.94,-0.45 0.39,0 0.75,0.16 0.96,0.45 0.04,0.04 0.08,0.11 0.11,0.17l1.23 -0.53zm5.2 -0.74c-0.41,-0.38 -1.03,-0.6 -1.61,-0.58 -0.48,0.02 -1,0.18 -1.41,0.51l0 -2.1 -1.17 0 0 6.96 1.33 0 0 -2.27c0,-0.36 0.01,-0.72 0.06,-0.95 0.06,-0.29 0.19,-0.52 0.38,-0.67 0.18,-0.12 0.38,-0.19 0.62,-0.2 0.36,0 0.64,0.1 0.83,0.29 0.27,0.27 0.35,0.72 0.35,1.19l0 2.61 1.33 0 0 -2.61c0,-0.91 -0.09,-1.61 -0.71,-2.18zm-13.75 6.81l-1.33 0 -2.26 4.62 -2.25 -4.62 -1.34 0 0 6.96 1.34 0 0 -4.15 2.02 4.15 0.46 0 2.03 -4.16 0 4.16 1.33 0 0 -6.96zm2.32 3.28c0.03,-0.05 0.07,-0.1 0.11,-0.14 0.2,-0.24 0.48,-0.32 0.82,-0.32 0.27,-0.01 0.54,0.04 0.75,0.16 0.19,0.11 0.34,0.29 0.39,0.49l-0.85 0.12c-0.74,0.11 -1.15,0.12 -1.73,0.43 -0.49,0.29 -0.84,0.84 -0.84,1.4 0,0.46 0.14,0.72 0.41,1.1 0.28,0.33 0.81,0.58 1.32,0.58 0.4,0 0.85,-0.1 1.22,-0.32 0.23,-0.14 0.55,-0.43 0.65,-0.71l0 0.89 1.15 0 0 -3.28c0,-0.32 -0.08,-0.7 -0.28,-1.04 -0.42,-0.72 -1.2,-1.04 -2.16,-1.04 -0.86,0 -1.57,0.28 -2.05,0.95 -0.04,0.05 -0.08,0.12 -0.11,0.15l1.2 0.58zm2.09 1.24c0,0.05 0,0.25 -0.06,0.46 -0.17,0.63 -0.83,0.9 -1.39,0.92 -0.42,0.02 -0.7,-0.25 -0.68,-0.56 0.01,-0.42 0.61,-0.53 1.17,-0.63l0.96 -0.19zm5.2 -2.92c-0.31,0.02 -0.63,0.1 -0.91,0.27 -0.24,0.15 -0.42,0.35 -0.56,0.58l0 -0.71 -1.16 0 0 5.22 1.33 0 0 -2.78c0,-0.39 0.1,-0.74 0.33,-0.99 0.19,-0.2 0.46,-0.33 0.84,-0.36 0.37,-0.03 0.73,0.03 1,0.14l0 -1.22c-0.29,-0.12 -0.59,-0.17 -0.87,-0.15zm3.13 3.02l0.55 0 1.53 2.34 1.47 0 -1.86 -2.84 1.62 -2.38 -1.49 0 -1.27 1.86 -0.55 0 0 -3.6 -1.34 0 0 6.96 1.34 0 0 -2.34zm5.16 0.09l3.85 0c0.01,-0.12 0.02,-0.25 0.02,-0.36 0,-0.7 -0.21,-1.37 -0.64,-1.89 -0.49,-0.58 -1.23,-0.87 -2.01,-0.87 -0.77,0 -1.52,0.3 -2,0.87 -0.44,0.52 -0.62,1.16 -0.64,1.89 -0.02,0.69 0.2,1.34 0.64,1.89 0.48,0.58 1.23,0.83 2,0.87 0.78,0.04 1.53,-0.26 2.05,-0.84 0.12,-0.14 0.23,-0.28 0.31,-0.43l-1.3 -0.57c-0.04,0.05 -0.06,0.11 -0.1,0.16 -0.22,0.29 -0.57,0.45 -0.96,0.45 -0.37,0 -0.73,-0.16 -0.94,-0.45 -0.16,-0.2 -0.24,-0.45 -0.28,-0.72zm1.22 -1.89c0.39,0 0.74,0.15 0.96,0.45 0.09,0.12 0.16,0.27 0.2,0.42l-2.32 0c0.05,-0.15 0.12,-0.3 0.22,-0.42 0.21,-0.3 0.57,-0.45 0.94,-0.45zm7.04 -0.07l0 -1.01 -1.51 0 0 -1.46 -1.32 0 0 1.46 -1.08 0 0 1.01 1.08 0 0 2c0,0.57 0.03,1.07 0.26,1.49 0.2,0.38 0.57,0.62 1.04,0.75 0.39,0.11 1.11,0.09 1.53,-0.03l0 -1.13c-0.28,0.04 -0.6,0.05 -0.85,0.03 -0.21,-0.02 -0.42,-0.14 -0.53,-0.32 -0.12,-0.18 -0.13,-0.48 -0.13,-0.89l0 -1.9 1.51 0z"></path> <path class="fil2" d="M32.88 17.3c0.76,-1.83 1.52,-3.66 2.26,-5.5l-1.57 0 0.28 -0.55 1.52 0 0.63 -1.55c0.01,-0.04 0.04,-0.1 0.07,-0.17 0.26,-0.67 0.5,-1.01 0.69,-1.01 0.1,0 0.17,0.03 0.23,0.08 0.05,0.05 0.08,0.12 0.08,0.19 0,0.09 -0.02,0.21 -0.07,0.36 -0.05,0.15 -0.14,0.34 -0.24,0.58l-0.64 1.52 1.24 0 -0.2 0.55 -1.26 0c-0.26,0.64 -2.41,5.39 -2.41,5.87 0,0.09 0.02,0.17 0.07,0.21 0.04,0.04 0.11,0.07 0.21,0.07 0.17,0 0.93,-0.31 2.38,-1.41 0.37,-0.28 0.65,-0.49 0.86,-0.65l0 0.7 -0.01 0c-2.09,1.58 -3.38,2.38 -3.88,2.38 -0.2,0 -0.36,-0.05 -0.45,-0.15 -0.1,-0.09 -0.15,-0.23 -0.15,-0.43 0,-0.17 0.08,-0.44 0.23,-0.8 0.06,-0.12 0.1,-0.22 0.13,-0.29zm8.05 -0.29c0.02,0.06 0.03,0.12 0.03,0.18 0,0.22 -0.12,0.4 -0.27,0.4 -0.05,0 -0.1,-0.02 -0.14,-0.05 -0.08,0.09 -0.16,0.19 -0.25,0.28l-0.28 -0.57c0.05,-0.05 0.1,-0.11 0.15,-0.17 -0.14,-0.22 -0.24,-0.45 -0.31,-0.66 -0.07,-0.22 -0.1,-0.44 -0.1,-0.67 0,-0.58 0.17,-1.11 0.49,-1.6 0.34,-0.48 0.67,-0.72 1.01,-0.72 0.2,0 0.37,0.09 0.51,0.27 0.13,0.18 0.2,0.41 0.2,0.69 0,0.33 -0.08,0.72 -0.25,1.17 -0.14,0.37 -0.31,0.73 -0.54,1.09 -0.08,0.12 -0.16,0.24 -0.25,0.36zm-1.61 1.62c-0.36,0.23 -0.72,0.34 -1.06,0.34 -0.47,0 -0.84,-0.18 -1.12,-0.54 -0.28,-0.36 -0.42,-0.84 -0.42,-1.45 0,-0.7 0.18,-1.38 0.55,-2.03 0.36,-0.65 0.87,-1.22 1.53,-1.69 0.29,-0.21 0.61,-0.39 0.95,-0.54 0.34,-0.14 0.59,-0.21 0.75,-0.21 0.06,0 0.12,0.02 0.16,0.08 0.05,0.05 0.07,0.11 0.07,0.19 0,0.14 -0.17,0.28 -0.52,0.43 -0.34,0.15 -0.63,0.3 -0.85,0.45 -0.54,0.36 -0.99,0.83 -1.34,1.43l-0.39 0 0 0.8c-0.13,0.37 -0.2,0.72 -0.2,1.07 0,0.38 0.1,0.7 0.29,0.97 0.19,0.26 0.42,0.39 0.68,0.39 0.21,0 0.43,-0.07 0.67,-0.21l0.25 0.52zm1.26 -2.11c0.25,-0.46 0.45,-0.86 0.58,-1.21 0.13,-0.35 0.2,-0.62 0.2,-0.81 0,-0.09 -0.03,-0.16 -0.08,-0.23 -0.05,-0.06 -0.11,-0.1 -0.18,-0.1 -0.15,0 -0.31,0.17 -0.47,0.5 -0.16,0.34 -0.24,0.69 -0.24,1.07 0.01,0.13 0.02,0.26 0.05,0.38 0.03,0.13 0.07,0.26 0.14,0.4z"></path> </g> </svg> 